<svg width="25" height="25" viewBox="0 0 25 25" fill="none" xmlns="http://www.w3.org/2000/svg">
<path d="M3.35522 21.197H21.3552M14.1396 5.50873C14.1396 5.50873 14.1396 7.14336 15.7743 8.77798C17.4089 10.4126 19.0435 10.4126 19.0435 10.4126M7.67485 18.1851L11.1076 17.6947C11.6027 17.624 12.0616 17.3945 12.4153 17.0409L20.6781 8.77798C21.5809 7.8752 21.5809 6.41151 20.6781 5.50873L19.0435 3.87411C18.1407 2.97133 16.677 2.97133 15.7743 3.87411L7.51139 12.137C7.1577 12.4907 6.92827 12.9495 6.85754 13.4447L6.36715 16.8774C6.25818 17.6402 6.91203 18.2941 7.67485 18.1851Z" stroke="#16151C" stroke-opacity="0.55" stroke-width="1.5" stroke-linecap="round"/>
</svg>
