<svg width="22" height="23" viewBox="0 0 22 23" fill="none" xmlns="http://www.w3.org/2000/svg">
<path fill-rule="evenodd" clip-rule="evenodd" d="M2.84039 11.0046C2.84039 15.3449 6.35889 18.8634 10.6992 18.8634C15.0395 18.8634 18.558 15.3449 18.558 11.0046C18.558 6.66431 15.0395 3.14581 10.6992 3.14581C6.35889 3.14581 2.84039 6.66431 2.84039 11.0046ZM10.6992 20.2106C5.61484 20.2106 1.49316 16.0889 1.49316 11.0046C1.49316 5.92026 5.61484 1.79858 10.6992 1.79858C15.7835 1.79858 19.9052 5.92026 19.9052 11.0046C19.9052 13.3043 19.062 15.4071 17.6678 17.0206L20.6061 19.9588C20.8691 20.2219 20.8691 20.6484 20.6061 20.9115C20.343 21.1745 19.9165 21.1745 19.6534 20.9115L16.7152 17.9732C15.1017 19.3674 12.9989 20.2106 10.6992 20.2106Z" fill="#16151C"/>
</svg>
