<svg width="25" height="24" viewBox="0 0 25 24" fill="none" xmlns="http://www.w3.org/2000/svg">
<g id="Huge-icon/user/outline/users 02">
<ellipse id="Ellipse 295" cx="12.1778" cy="16.5" rx="6.05846" ry="2.5" stroke="white" stroke-width="1.5" stroke-linejoin="round"/>
<ellipse id="Ellipse 296" cx="12.1778" cy="8" rx="3.02923" ry="3" stroke="white" stroke-width="1.5" stroke-linejoin="round"/>
<path id="Subtract" fill-rule="evenodd" clip-rule="evenodd" d="M6.5692 13.2615C5.32012 13.313 4.17308 13.5359 3.28296 13.8885C2.77431 14.09 2.31205 14.3486 1.96451 14.6741C1.61568 15.0008 1.33044 15.4484 1.33044 16C1.33044 16.5516 1.61568 16.9992 1.96451 17.3259C2.31205 17.6514 2.77431 17.91 3.28296 18.1115C3.78604 18.3108 4.37119 18.4686 5.01045 18.5775C4.51236 18.0453 4.19967 17.4507 4.12008 16.8203C4.02085 16.7873 3.92586 16.7528 3.8354 16.7169C3.43041 16.5565 3.1533 16.3841 2.98989 16.2311C2.8291 16.0805 2.83041 16.002 2.83044 16L2.83044 16L2.83044 15.9999C2.83041 15.998 2.8291 15.9195 2.98989 15.7689C3.1533 15.6158 3.43041 15.4435 3.8354 15.283C4.0419 15.2012 4.27196 15.1264 4.52223 15.0602C4.94 14.3706 5.6496 13.7558 6.5692 13.2615Z" fill="white"/>
<path id="Subtract_2" fill-rule="evenodd" clip-rule="evenodd" d="M20.2356 16.8203C20.156 17.4507 19.8433 18.0453 19.3452 18.5775C19.9845 18.4686 20.5697 18.3108 21.0727 18.1115C21.5814 17.91 22.0436 17.6514 22.3912 17.3259C22.74 16.9992 23.0253 16.5516 23.0253 16C23.0253 15.4484 22.74 15.0008 22.3912 14.6741C22.0436 14.3486 21.5814 14.09 21.0727 13.8885C20.1826 13.5359 19.0356 13.313 17.7865 13.2615C18.7061 13.7558 19.4157 14.3706 19.8335 15.0602C20.0837 15.1264 20.3138 15.2012 20.5203 15.2831C20.9253 15.4435 21.2024 15.6158 21.3658 15.7689C21.5266 15.9195 21.5253 15.998 21.5253 15.9999V16V16C21.5253 16.002 21.5266 16.0805 21.3658 16.2311C21.2024 16.3841 20.9253 16.5565 20.5203 16.7169C20.4298 16.7528 20.3348 16.7873 20.2356 16.8203Z" fill="white"/>
<path id="Subtract_3" fill-rule="evenodd" clip-rule="evenodd" d="M16.7356 10.1534C16.514 10.6127 16.2236 11.0333 15.8777 11.4021C16.2775 11.6239 16.7378 11.75 17.2266 11.75C18.7492 11.75 19.996 10.5256 19.996 9C19.996 7.47438 18.7492 6.25 17.2266 6.25C17.1213 6.25 17.0174 6.25585 16.9151 6.26724C17.0888 6.73281 17.1945 7.23101 17.2204 7.75001C17.2224 7.75 17.2245 7.75 17.2266 7.75C17.9345 7.75 18.496 8.31648 18.496 9C18.496 9.68352 17.9345 10.25 17.2266 10.25C17.0519 10.25 16.8862 10.2155 16.7356 10.1534Z" fill="white"/>
<path id="Subtract_4" fill-rule="evenodd" clip-rule="evenodd" d="M7.44051 6.26724C7.33824 6.25585 7.23433 6.25 7.12911 6.25C5.60643 6.25 4.35962 7.47438 4.35962 9C4.35962 10.5256 5.60643 11.75 7.12911 11.75C7.61785 11.75 8.07818 11.6239 8.47797 11.4021C8.13206 11.0333 7.84168 10.6127 7.62001 10.1534C7.46944 10.2155 7.30373 10.25 7.12911 10.25C6.42111 10.25 5.85962 9.68352 5.85962 9C5.85962 8.31648 6.42111 7.75 7.12911 7.75C7.13117 7.75 7.13324 7.75 7.13531 7.75001C7.16111 7.23101 7.26682 6.73281 7.44051 6.26724Z" fill="white"/>
</g>
</svg>
